<?xml version="1.0" encoding="UTF-8" standalone="no"?><!-- Generator: Gravit.io --><svg xmlns="http://www.w3.org/2000/svg" xmlns:xlink="http://www.w3.org/1999/xlink" style="isolation:isolate" viewBox="0 0 64 64" width="64pt" height="64pt"><rect x="50.565" y="0" width="13.435" height="64" transform="matrix(1,0,0,1,0,0)" fill="rgb(18,18,18)"/><path d="M 43 0 L 53 0 C 59.071 0 64 4.929 64 11 L 64 53 C 64 59.071 59.071 64 53 64 L 43 64 C 36.929 64 32 59.071 32 53 L 32 11 C 32 4.929 36.929 0 43 0 Z" style="stroke:none;fill:#121212;stroke-miterlimit:10;"/><g style="isolation:isolate"><path d="M 42.924 28.662 L 56.082 44.353 C 56.352 44.676 56.31 45.157 55.988 45.428 L 52.411 48.432 C 52.088 48.702 51.607 48.66 51.336 48.338 L 38.178 32.647 C 37.908 32.324 37.95 31.843 38.272 31.572 L 41.849 28.568 C 42.172 28.298 42.653 28.34 42.924 28.662 Z" style="stroke:none;fill:#FFFFFF;stroke-miterlimit:10;"/><path d="M 38.178 31.353 L 51.336 15.662 C 51.607 15.34 52.088 15.298 52.411 15.568 L 55.988 18.572 C 56.31 18.843 56.352 19.324 56.082 19.647 L 42.924 35.338 C 42.653 35.66 42.172 35.702 41.849 35.432 L 38.272 32.428 C 37.95 32.157 37.908 31.676 38.178 31.353 Z" style="stroke:none;fill:#FFFFFF;stroke-miterlimit:10;"/></g></svg>